<?xml version="1.0" standalone="no"?>
<!DOCTYPE svg PUBLIC "-//W3C//DTD SVG 20010904//EN"
 "http://www.w3.org/TR/2001/REC-SVG-20010904/DTD/svg10.dtd">
<svg version="1.0" xmlns="http://www.w3.org/2000/svg"
 width="840.000000pt" height="240.000000pt" viewBox="0 0 840.000000 240.000000"
 preserveAspectRatio="xMidYMid meet">

<g transform="translate(0.000000,240.000000) scale(0.100000,-0.100000)"
fill="#000000" stroke="none">
<path d="M1329 2119 c-98 -15 -184 -86 -229 -191 -22 -51 -30 -59 -67 -72 -69
-24 -175 -91 -232 -148 -163 -161 -160 -426 6 -476 22 -7 61 -15 87 -18 25 -4
46 -10 46 -14 0 -6 -26 -100 -36 -129 -3 -9 -15 3 -34 32 -40 63 -66 87 -95
87 -47 0 -59 -72 -25 -149 11 -24 20 -56 20 -71 0 -16 11 -42 25 -58 14 -17
25 -37 25 -45 0 -9 4 -18 9 -21 4 -3 -1 -31 -12 -63 -15 -47 -18 -74 -14 -139
l6 -81 -37 1 c-30 1 -38 -3 -45 -25 -13 -34 -2 -89 26 -130 19 -28 30 -35 65
-37 33 -2 42 -7 42 -21 0 -30 28 -47 51 -33 17 11 26 8 65 -18 42 -30 123 -69
172 -84 20 -7 22 -4 22 31 0 44 6 55 37 72 14 7 30 8 46 2 14 -6 27 -8 30 -5
2 3 16 -1 31 -7 30 -14 51 -71 36 -100 -22 -41 -17 -42 143 -36 172 6 202 12
191 36 -11 23 -7 80 6 96 11 13 62 25 113 27 32 1 67 -27 67 -54 0 -16 3 -17
21 -7 11 6 28 24 37 40 10 16 41 62 71 102 61 81 117 194 127 254 7 46 11 54
39 69 11 6 22 20 23 30 2 10 13 29 25 41 11 13 24 42 28 65 4 24 15 65 25 91
32 91 -14 148 -78 98 -24 -19 -26 -28 -30 -118 -3 -80 -9 -109 -32 -159 -34
-77 -102 -144 -181 -181 -50 -23 -72 -28 -130 -26 -38 1 -149 2 -245 2 -275 0
-391 33 -473 136 -134 169 -153 433 -44 638 46 87 124 146 242 182 49 15 87 2
307 -103 80 -39 175 -81 210 -93 66 -23 170 -30 226 -16 31 8 33 7 52 -35 11
-24 18 -34 15 -23 -2 11 -7 32 -10 46 -5 21 1 37 29 74 52 68 69 137 64 260
-4 82 -9 109 -28 143 -41 72 -106 88 -205 51 -31 -12 -57 -19 -59 -17 -1 1
-22 37 -47 78 -24 41 -62 94 -85 116 -45 46 -128 80 -172 71 -15 -3 -52 3 -82
13 -70 22 -123 28 -181 19z"/>
<path d="M3080 1847 c0 -19 67 -80 79 -73 18 11 13 28 -16 58 -28 29 -63 38
-63 15z"/>
<path d="M3596 1831 c-28 -29 -30 -61 -4 -61 19 0 68 52 68 72 0 28 -33 22
-64 -11z"/>
<path d="M3307 1806 c-72 -26 -117 -92 -117 -170 0 -80 31 -131 102 -167 120
-61 261 28 261 166 0 80 -40 138 -115 170 -45 18 -81 19 -131 1z"/>
<path d="M3122 1457 c-35 -36 -40 -52 -18 -60 19 -8 80 58 73 77 -9 23 -19 20
-55 -17z"/>
<path d="M3563 1473 c-7 -18 61 -88 77 -78 18 11 10 41 -18 68 -32 31 -50 34
-59 10z"/>
<path d="M7414 1429 c-60 -38 -186 -166 -273 -277 -43 -54 -67 -78 -72 -70 -4
7 -12 69 -18 138 -6 68 -16 129 -21 134 -5 5 -16 6 -24 3 -14 -6 -16 -42 -16
-291 0 -205 -4 -316 -16 -401 -9 -64 -13 -131 -10 -150 16 -83 86 -112 143
-57 37 34 68 114 101 265 14 64 28 117 31 117 3 0 19 -21 36 -48 46 -73 154
-175 219 -207 97 -47 186 -32 186 31 0 81 -91 217 -226 338 -49 44 -90 85 -92
92 -5 19 34 90 99 181 60 83 98 155 99 185 0 54 -73 63 -146 17z"/>
<path d="M3307 1374 c-42 -23 -77 -104 -77 -181 0 -77 57 -597 71 -639 14 -46
52 -78 83 -70 48 12 62 67 96 367 36 335 38 397 9 457 -36 74 -115 103 -182
66z"/>
<path d="M4202 1374 c-180 -48 -300 -200 -318 -403 -7 -81 15 -194 53 -268 32
-64 111 -142 179 -176 75 -38 140 -47 329 -47 l175 0 0 54 0 54 -187 3 c-182
4 -190 5 -245 32 -67 33 -111 80 -147 157 -22 48 -26 68 -26 155 0 89 3 107
28 160 37 79 98 140 165 165 45 17 78 20 232 20 l180 0 0 55 0 55 -182 -1
c-125 0 -200 -5 -236 -15z"/>
<path d="M5925 1365 l-25 -24 0 -431 0 -430 60 0 60 0 2 359 3 359 235 -350
c129 -192 243 -354 252 -359 30 -16 68 -10 93 16 l25 24 0 431 0 430 -60 0
-60 0 -2 -356 -3 -355 -233 345 c-128 190 -241 350 -252 356 -32 17 -70 11
-95 -15z"/>
<path d="M5000 939 c-140 -243 -256 -445 -258 -450 -2 -5 226 -9 520 -9 l523
0 -85 50 -85 50 -349 0 c-323 0 -348 1 -342 17 4 9 81 149 172 310 l165 293
-3 90 -3 91 -255 -442z"/>
<path d="M1361 1284 c-33 -28 -39 -44 -17 -44 22 0 46 -29 46 -55 0 -26 -42
-61 -60 -50 -17 10 -12 -33 9 -74 13 -25 33 -43 59 -55 87 -39 137 1 137 112
0 80 -25 135 -75 170 -43 28 -62 28 -99 -4z m56 -70 c-9 -9 -28 6 -21 18 4 6
10 6 17 -1 6 -6 8 -13 4 -17z"/>
<path d="M1838 1251 c-24 -19 -48 -78 -48 -117 0 -41 23 -99 50 -126 39 -38
80 -38 113 2 51 60 43 166 -18 227 -38 38 -62 41 -97 14z m42 -97 c0 -28 -25
-42 -49 -27 -23 15 -26 45 -6 59 25 18 55 0 55 -32z m40 31 c0 -8 -4 -15 -10
-15 -5 0 -10 7 -10 15 0 8 5 15 10 15 6 0 10 -7 10 -15z"/>
<path d="M612 1204 c-44 -30 -14 -94 45 -94 23 0 53 34 53 61 0 21 -32 49 -56
49 -11 0 -30 -7 -42 -16z"/>
<path d="M372 514 c-23 -16 -29 -48 -11 -59 5 -4 26 1 45 10 32 15 37 15 60 1
13 -9 24 -23 24 -31 0 -21 -29 -45 -53 -45 -12 0 -29 -5 -37 -10 -12 -8 -8
-16 23 -45 30 -28 37 -40 32 -58 -8 -27 -33 -47 -57 -47 -21 0 -58 34 -58 54
0 7 -7 19 -15 26 -24 20 -47 -6 -40 -44 8 -38 44 -72 89 -84 46 -13 81 -5 116
28 37 34 41 87 10 115 -25 23 -25 32 0 40 27 9 53 61 45 92 -11 44 -52 73
-104 73 -26 0 -56 -7 -69 -16z"/>
</g>
</svg>
